<?xml version="1.0" standalone="no"?>
<!DOCTYPE svg PUBLIC "-//W3C//DTD SVG 20010904//EN"
 "http://www.w3.org/TR/2001/REC-SVG-20010904/DTD/svg10.dtd">
<svg version="1.0" xmlns="http://www.w3.org/2000/svg"
 width="500.000000pt" height="500.000000pt" viewBox="0 0 500.000000 500.000000"
 preserveAspectRatio="xMidYMid meet">

<g transform="translate(0.000000,500.000000) scale(0.100000,-0.100000)"
fill="#000000" stroke="none">
<path d="M1139 4690 c-25 -4 -80 -17 -121 -29 -348 -95 -624 -394 -699 -755
-18 -86 -19 -157 -19 -1406 0 -1249 1 -1320 19 -1406 53 -255 212 -490 427
-631 103 -66 170 -97 294 -131 l95 -27 1365 0 1365 0 95 27 c124 34 192 65
293 131 217 142 376 376 428 633 19 90 19 147 17 1437 l-3 1342 -22 77 c-70
246 -220 455 -419 585 -100 65 -168 96 -288 131 l-91 27 -1345 1 c-740 1
-1366 -2 -1391 -6z m1676 -963 c258 -49 427 -133 560 -279 70 -77 146 -229
172 -343 28 -125 24 -359 -10 -486 -62 -235 -195 -404 -404 -512 l-83 -43 280
-418 c154 -229 280 -419 280 -422 0 -2 -109 -3 -242 -2 l-242 3 -227 375 -226
375 -356 3 -357 2 -2 -377 -3 -378 -212 -3 -213 -2 0 1265 0 1266 603 -4 c483
-4 618 -7 682 -20z"/>
<path d="M1960 2865 l0 -496 393 3 c379 4 394 5 462 27 104 35 163 68 214 120
88 91 131 206 131 356 0 241 -117 391 -358 458 -71 19 -107 21 -459 25 l-383
3 0 -496z"/>
</g>
</svg>
